<svg width="8" height="8" viewBox="0 0 8 8" fill="none" xmlns="http://www.w3.org/2000/svg">
<path d="M7.7377 1.82011C7.79599 2.04586 7.83971 2.2575 7.86885 2.45503C7.898 2.65256 7.94171 2.8642 8 3.08995C7.88342 3.37213 7.78142 3.65432 7.69399 3.93651C7.60656 4.19048 7.51913 4.44444 7.43169 4.69841C7.34426 4.89594 7.28597 5.02293 7.25683 5.07936C7.22769 5.1358 7.21311 5.17813 7.21311 5.20635C7.21311 5.23457 7.21311 5.2769 7.21311 5.33333C7.24226 5.36155 7.25683 5.47443 7.25683 5.67196L7.08197 6.17989C6.93625 6.37742 6.76138 6.53263 6.55738 6.6455C6.35337 6.75838 6.14936 6.85714 5.94535 6.9418C5.88707 6.99824 5.79964 7.04056 5.68306 7.06878C5.56648 7.12522 5.47905 7.18166 5.42076 7.23809L5.28962 7.74603L4.72131 7.83069C4.22586 7.94356 3.80328 8 3.45355 8H2.92896C2.57923 7.68959 2.30237 7.44974 2.09836 7.28042C1.89435 7.11111 1.67577 6.95591 1.44262 6.81481C1.15118 6.41975 0.990893 6.13757 0.961749 5.96825C0.932605 5.77072 0.888889 5.5873 0.830601 5.41799C0.772313 5.05115 0.699454 4.81129 0.612022 4.69841L0 4.10582L0.52459 3.72487L0.0437158 2.92063C0.393443 2.66667 0.655738 2.48325 0.830601 2.37037C1.00546 2.2575 1.15118 2.14462 1.26776 2.03175C1.38434 1.89065 1.51548 1.72134 1.6612 1.52381C1.80692 1.32628 2.04007 1.00176 2.36066 0.550265L2.7541 0L3.3224 0.296296C3.43898 0.380952 3.6867 0.465608 4.06557 0.550265C4.47359 0.606702 4.82332 0.663139 5.11475 0.719577C5.6102 0.86067 6.0765 0.973545 6.51366 1.0582C6.95082 1.11464 7.30055 1.25573 7.56284 1.48148L7.7377 1.82011Z" fill="#24272C"/>
</svg>
