<svg width="33" height="20" viewBox="0 0 33 20" fill="none" xmlns="http://www.w3.org/2000/svg">
<path d="M31.1554 18.419C30.8942 18.489 30.5501 18.5112 30.1233 18.4855C29.7139 18.5252 29.3133 18.5976 28.9215 18.7026C28.5949 18.7901 28.3186 18.9341 28.0923 19.1347C27.8661 19.3353 27.7967 19.5989 27.8842 19.9255C25.8887 19.2702 23.8192 18.5998 21.6756 17.9142C19.6148 17.2765 17.5062 16.7215 15.3498 16.2494C13.2586 15.7597 11.2113 15.4334 9.20768 15.2703C7.22157 15.1725 5.3381 15.3272 3.55729 15.7343C2.49487 15.949 1.75835 15.5514 1.34775 14.5414C0.954647 13.5968 0.713718 12.4364 0.624965 11.0603C0.60152 9.66663 0.643383 8.25547 0.750554 6.82682C0.923032 5.38066 1.06114 4.3287 1.16488 3.67094C1.68265 3.25221 2.31589 2.87255 3.06458 2.53194C3.81328 2.19133 4.57072 1.88338 5.33692 1.60808C6.18592 1.38059 6.99352 1.1292 7.75971 0.853902C8.60871 0.626413 9.31835 0.401267 9.88862 0.178467C10.747 0.508439 11.7902 0.613895 13.0183 0.494834C14.2638 0.44108 15.4201 0.446229 16.4872 0.510281C17.2103 0.596521 17.6371 0.622142 17.7678 0.587144C17.9812 0.599954 18.0879 0.606359 18.0879 0.606359C18.1532 0.58886 18.2512 0.562612 18.3818 0.527613C18.5952 0.540424 19.0722 0.622603 19.8128 0.774151C20.1743 0.817271 20.4355 0.747274 20.5965 0.56416C20.8402 0.428856 21.0775 0.400262 21.3085 0.478381C21.4566 0.50869 21.6222 0.604308 21.8053 0.765234C22.0059 0.991467 22.189 1.15239 22.3546 1.24801C22.799 1.33894 23.1104 1.3255 23.2888 1.2077C23.4847 1.1552 23.8223 1.23972 24.3017 1.46127C24.6982 1.635 25.219 1.88045 25.8639 2.19761C26.5742 2.49728 27.1906 2.57711 27.713 2.43712C28.5458 3.19394 29.3937 3.8767 30.2568 4.4854C31.1198 5.09411 31.9071 6.0731 32.6187 7.42238C32.5102 7.80141 32.3412 8.47668 32.1115 9.44818C31.8993 10.485 31.6959 11.5544 31.5013 12.6566C31.3894 13.8065 31.2688 14.9238 31.1394 16.0084C31.0754 17.0755 31.0807 17.879 31.1554 18.419Z" fill="#FEC8E8"/>
</svg>
